<svg data-logo="logo" xmlns="http://www.w3.org/2000/svg" viewBox="0 0 231 40">
                <g style="opacity: 1;" id="logogram" transform="translate(0, 0)"><path d="M20.0277 10C20.0277 15.5228 15.5506 20 10.0277 20H0.02771V10C0.02771 4.47715 4.50486 0 10.0277 0C15.5506 0 20.0277 4.47715 20.0277 10Z" fill="#17CF97"></path><path d="M20.0277 30C20.0277 24.4772 24.5049 20 30.0277 20H40.0277V30C40.0277 35.5228 35.5506 40 30.0277 40C24.5049 40 20.0277 35.5228 20.0277 30Z" fill="#17CF97"></path><path d="M0.02771 30C0.02771 35.5228 4.50486 40 10.0277 40H20.0277V30C20.0277 24.4772 15.5506 20 10.0277 20C4.50486 20 0.02771 24.4772 0.02771 30Z" fill="#17CF97"></path><path d="M40.0277 10C40.0277 4.47715 35.5506 0 30.0277 0H20.0277V10C20.0277 15.5228 24.5049 20 30.0277 20C35.5506 20 40.0277 15.5228 40.0277 10Z" fill="#17CF97"></path></g>
                <g style="opacity: 1;" id="logotype" transform="translate(47, 9)"><path fill="#000000" d="M19.16 22.02L19.16 22.02Q15.66 22.02 13.07 20.46Q10.48 18.91 9.04 16.09Q7.61 13.27 7.61 9.53L7.61 9.53Q7.61 5.74 9.08 2.86Q10.55-0.03 13.32-1.68Q16.08-3.32 19.93-3.32L19.93-3.32Q24.24-3.32 27.09-1.25Q29.94 0.81 30.78 4.48L30.78 4.48L25.50 4.48Q24.97 2.88 23.55 1.95Q22.14 1.02 19.90 1.02L19.90 1.02Q17.52 1.02 15.84 2.07Q14.16 3.12 13.28 5.01Q12.41 6.90 12.41 9.53L12.41 9.53Q12.41 12.19 13.28 14.04Q14.16 15.89 15.78 16.86Q17.41 17.82 19.62 17.82L19.62 17.82Q22.84 17.82 24.50 16.09Q26.16 14.36 26.48 11.59L26.48 11.59L20.46 11.59L20.46 8.05L31.24 8.05L31.24 21.60L26.86 21.60L26.51 18.48L26.51 18.48Q25.74 19.64 24.71 20.43Q23.68 21.21 22.31 21.62Q20.95 22.02 19.16 22.02ZM38.41 21.60L33.69 21.60L33.69 3.96L37.89 3.96L38.34 7.21L38.34 7.21Q38.97 6.06 39.93 5.25Q40.90 4.45 42.14 4.00Q43.38 3.54 44.89 3.54L44.89 3.54L44.89 8.54L43.28 8.54Q42.23 8.54 41.33 8.79Q40.44 9.04 39.78 9.58Q39.11 10.12 38.76 11.07Q38.41 12.01 38.41 13.45L38.41 13.45L38.41 21.60ZM54.34 22.02L54.34 22.02Q51.68 22.02 49.63 20.88Q47.58 19.75 46.44 17.70Q45.31 15.65 45.31 12.96L45.31 12.96Q45.31 10.19 46.43 8.07Q47.55 5.96 49.59 4.75Q51.64 3.54 54.34 3.54L54.34 3.54Q56.96 3.54 58.92 4.70Q60.88 5.85 61.97 7.81Q63.05 9.77 63.05 12.26L63.05 12.26Q63.05 12.61 63.05 13.04Q63.05 13.48 62.98 13.94L62.98 13.94L48.67 13.94L48.67 11.07L58.29 11.07Q58.19 9.35 57.08 8.37Q55.98 7.39 54.34 7.39L54.34 7.39Q53.15 7.39 52.13 7.93Q51.12 8.47 50.54 9.60Q49.96 10.71 49.96 12.43L49.96 12.43L49.96 13.45Q49.96 14.88 50.50 15.95Q51.05 17.02 52.03 17.59Q53.01 18.17 54.30 18.17L54.30 18.17Q55.60 18.17 56.45 17.61Q57.31 17.05 57.73 16.18L57.73 16.18L62.56 16.18Q62.07 17.82 60.92 19.15Q59.76 20.48 58.08 21.25Q56.40 22.02 54.34 22.02ZM73.55 22.02L73.55 22.02Q70.89 22.02 68.84 20.88Q66.80 19.75 65.66 17.70Q64.52 15.65 64.52 12.96L64.52 12.96Q64.52 10.19 65.64 8.07Q66.76 5.96 68.81 4.75Q70.86 3.54 73.55 3.54L73.55 3.54Q76.18 3.54 78.14 4.70Q80.09 5.85 81.18 7.81Q82.27 9.77 82.27 12.26L82.27 12.26Q82.27 12.61 82.27 13.04Q82.27 13.48 82.20 13.94L82.20 13.94L67.88 13.94L67.88 11.07L77.51 11.07Q77.40 9.35 76.30 8.37Q75.20 7.39 73.55 7.39L73.55 7.39Q72.36 7.39 71.34 7.93Q70.33 8.47 69.75 9.60Q69.17 10.71 69.17 12.43L69.17 12.43L69.17 13.45Q69.17 14.88 69.72 15.95Q70.26 17.02 71.24 17.59Q72.22 18.17 73.52 18.17L73.52 18.17Q74.81 18.17 75.67 17.61Q76.53 17.05 76.95 16.18L76.95 16.18L81.78 16.18Q81.28 17.82 80.13 19.15Q78.98 20.48 77.30 21.25Q75.62 22.02 73.55 22.02ZM89.02 21.60L84.30 21.60L84.30 3.96L88.46 3.96L88.81 6.83L88.81 6.83Q89.61 5.36 91.10 4.45Q92.59 3.54 94.66 3.54L94.66 3.54Q96.86 3.54 98.37 4.45Q99.87 5.36 100.66 7.11Q101.44 8.86 101.44 11.42L101.44 11.42L101.44 21.60L96.75 21.60L96.75 11.87Q96.75 9.77 95.86 8.65Q94.97 7.53 93.11 7.53L93.11 7.53Q91.92 7.53 91.00 8.09Q90.07 8.65 89.55 9.68Q89.02 10.71 89.02 12.19L89.02 12.19L89.02 21.60ZM112.57 22.02L112.57 22.02Q109.91 22.02 107.83 21.11Q105.75 20.20 104.54 18.45Q103.33 16.70 103.30 14.21L103.30 14.21L108.30 14.21Q108.34 15.30 108.86 16.18Q109.39 17.05 110.32 17.56Q111.24 18.07 112.54 18.07L112.54 18.07Q113.66 18.07 114.48 17.70Q115.30 17.33 115.76 16.66Q116.22 16 116.22 15.09L116.22 15.09Q116.22 14.04 115.71 13.34Q115.20 12.64 114.31 12.15Q113.41 11.66 112.24 11.26Q111.07 10.86 109.77 10.40L109.77 10.40Q106.87 9.46 105.35 7.88Q103.82 6.30 103.82 3.71L103.82 3.71Q103.82 1.51 104.89-0.07Q105.96-1.64 107.85-2.48Q109.74-3.32 112.16-3.32L112.16-3.32Q114.64-3.32 116.51-2.46Q118.38-1.61 119.49 0.00Q120.59 1.61 120.63 3.79L120.63 3.79L115.58 3.79Q115.55 2.98 115.11 2.26Q114.67 1.54 113.91 1.11Q113.13 0.67 112.08 0.67L112.08 0.67Q111.17 0.63 110.42 0.95Q109.67 1.27 109.23 1.88Q108.79 2.49 108.79 3.40L108.79 3.40Q108.79 4.27 109.23 4.87Q109.67 5.46 110.44 5.90Q111.21 6.34 112.26 6.71Q113.31 7.07 114.53 7.46L114.53 7.46Q116.35 8.09 117.89 8.95Q119.44 9.80 120.34 11.17Q121.25 12.54 121.25 14.78L121.25 14.78Q121.25 16.70 120.24 18.35Q119.22 19.99 117.32 21.01Q115.41 22.02 112.57 22.02ZM129.27 22.02L129.27 22.02Q127.06 22.02 125.63 21.30Q124.19 20.59 123.51 19.38Q122.83 18.17 122.83 16.70L122.83 16.70Q122.83 15.09 123.65 13.87Q124.47 12.64 126.14 11.94Q127.80 11.24 130.32 11.24L130.32 11.24L134.69 11.24Q134.69 9.95 134.34 9.09Q134.00 8.23 133.26 7.81Q132.52 7.39 131.30 7.39L131.30 7.39Q129.97 7.39 129.04 7.97Q128.11 8.54 127.90 9.73L127.90 9.73L123.32 9.73Q123.49 7.85 124.56 6.46Q125.63 5.08 127.40 4.31Q129.16 3.54 131.33 3.54L131.33 3.54Q133.82 3.54 135.64 4.38Q137.46 5.22 138.44 6.79Q139.42 8.37 139.42 10.68L139.42 10.68L139.42 21.60L135.43 21.60L134.91 18.91L134.91 18.91Q134.52 19.61 134.00 20.17Q133.47 20.73 132.77 21.15Q132.07 21.57 131.19 21.79Q130.32 22.02 129.27 22.02ZM130.39 18.38L130.39 18.38Q131.30 18.38 132.02 18.05Q132.73 17.71 133.26 17.14Q133.78 16.56 134.08 15.81Q134.38 15.05 134.48 14.18L134.48 14.18L134.48 14.14L130.88 14.14Q129.79 14.14 129.11 14.41Q128.43 14.67 128.11 15.16Q127.80 15.65 127.80 16.28L127.80 16.28Q127.80 16.98 128.11 17.44Q128.43 17.89 129.02 18.14Q129.62 18.38 130.39 18.38ZM146.70 21.60L141.97 21.60L141.97-3.60L146.70-3.60L146.70 21.60ZM157.94 22.02L157.94 22.02Q155.28 22.02 153.23 20.88Q151.18 19.75 150.04 17.70Q148.91 15.65 148.91 12.96L148.91 12.96Q148.91 10.19 150.03 8.07Q151.15 5.96 153.19 4.75Q155.24 3.54 157.94 3.54L157.94 3.54Q160.56 3.54 162.52 4.70Q164.48 5.85 165.56 7.81Q166.65 9.77 166.65 12.26L166.65 12.26Q166.65 12.61 166.65 13.04Q166.65 13.48 166.58 13.94L166.58 13.94L152.27 13.94L152.27 11.07L161.89 11.07Q161.78 9.35 160.68 8.37Q159.58 7.39 157.94 7.39L157.94 7.39Q156.75 7.39 155.73 7.93Q154.72 8.47 154.14 9.60Q153.56 10.71 153.56 12.43L153.56 12.43L153.56 13.45Q153.56 14.88 154.10 15.95Q154.65 17.02 155.63 17.59Q156.60 18.17 157.90 18.17L157.90 18.17Q159.19 18.17 160.05 17.61Q160.91 17.05 161.33 16.18L161.33 16.18L166.16 16.18Q165.67 17.82 164.52 19.15Q163.36 20.48 161.68 21.25Q160 22.02 157.94 22.02ZM175.89 22.02L175.89 22.02Q173.47 22.02 171.69 21.25Q169.91 20.48 168.89 19.12Q167.88 17.75 167.74 16.04L167.74 16.04L172.43 16.04Q172.60 16.70 173.02 17.24Q173.44 17.79 174.14 18.10Q174.84 18.41 175.82 18.41L175.82 18.41Q176.77 18.41 177.36 18.15Q177.96 17.89 178.25 17.44Q178.55 16.98 178.55 16.49L178.55 16.49Q178.55 15.76 178.13 15.35Q177.71 14.95 176.91 14.71Q176.10 14.46 174.94 14.21L174.94 14.21Q173.69 13.97 172.48 13.60Q171.27 13.24 170.33 12.68Q169.38 12.12 168.82 11.24Q168.26 10.37 168.26 9.07L168.26 9.07Q168.26 7.49 169.10 6.25Q169.94 5.01 171.55 4.27Q173.16 3.54 175.44 3.54L175.44 3.54Q178.62 3.54 180.47 4.98Q182.33 6.41 182.68 8.93L182.68 8.93L178.24 8.93Q178.03 8.13 177.31 7.65Q176.59 7.18 175.40 7.18L175.40 7.18Q174.14 7.18 173.47 7.63Q172.81 8.09 172.81 8.83L172.81 8.83Q172.81 9.31 173.25 9.70Q173.69 10.09 174.49 10.35Q175.30 10.61 176.45 10.86L176.45 10.86Q178.48 11.28 180.02 11.82Q181.56 12.36 182.44 13.36Q183.31 14.36 183.31 16.25L183.31 16.25Q183.31 17.93 182.40 19.24Q181.49 20.55 179.83 21.29Q178.17 22.02 175.89 22.02Z"></path></g>
                
            </svg>